
<svg version="1.0" xmlns="http://www.w3.org/2000/svg"
 width="1024.000000pt" height="1024.000000pt" viewBox="0 0 1024.000000 1024.000000"
 preserveAspectRatio="xMidYMid meet">

<g transform="translate(0.000000,1024.000000) scale(0.100000,-0.100000)"
fill="#000000" stroke="none">
<path d="M4875 9279 c-347 -28 -480 -54 -810 -156 -211 -66 -313 -108 -456
-189 -191 -110 -263 -133 -357 -114 -72 13 -122 38 -135 67 -13 30 -25 29 -33
-2 -9 -36 25 -94 74 -129 26 -19 69 -35 119 -46 l78 -16 -99 -39 c-65 -25
-120 -55 -160 -87 -34 -26 -77 -56 -96 -67 -33 -18 -74 -59 -142 -144 -19 -24
-48 -42 -90 -57 -35 -13 -69 -28 -75 -33 -26 -20 -12 -28 38 -21 32 4 50 3 48
-3 -2 -5 -33 -34 -69 -64 -133 -113 -199 -203 -283 -389 -39 -88 -87 -135
-187 -182 -53 -26 -78 -32 -137 -32 -69 -1 -73 0 -107 33 -31 30 -36 32 -36
15 0 -61 75 -116 177 -130 54 -7 197 18 208 37 4 5 10 9 15 9 6 0 -3 -21 -19
-47 -16 -27 -36 -73 -46 -103 -10 -30 -23 -61 -30 -68 -20 -22 -154 -52 -232
-52 -111 0 -206 48 -246 124 -27 52 -28 137 -3 184 21 41 15 50 -18 28 -40
-26 -60 -74 -60 -142 1 -175 182 -324 437 -359 28 -4 47 -11 47 -19 0 -10 -29
-15 -107 -19 -156 -8 -238 -41 -361 -145 -164 -138 -248 -391 -221 -667 12
-128 48 -230 204 -580 37 -82 76 -172 87 -200 39 -97 52 -117 107 -161 105
-83 211 -128 339 -142 l62 -7 -37 -55 c-132 -197 -354 -294 -518 -226 -42 18
-102 72 -121 109 -21 39 -38 22 -28 -28 10 -54 72 -118 153 -158 62 -30 72
-32 176 -32 115 0 209 21 298 67 21 10 43 18 48 16 11 -4 -126 -229 -197 -324
-63 -83 -152 -174 -211 -215 -23 -16 -69 -36 -101 -44 -54 -14 -68 -14 -134 0
-93 19 -145 54 -178 120 l-25 50 -3 -34 c-5 -49 4 -76 41 -117 67 -77 241
-133 375 -121 131 13 231 47 319 110 24 17 46 27 49 24 4 -4 -7 -42 -24 -84
-60 -154 -67 -192 -67 -388 0 -192 6 -234 57 -400 78 -258 243 -553 285 -511
4 3 -14 50 -40 103 -25 54 -51 118 -58 143 -20 68 -16 270 6 355 33 127 94
269 110 254 2 -3 -2 -39 -11 -80 -24 -113 -14 -343 20 -467 34 -121 77 -223
124 -291 61 -90 102 -100 59 -14 -53 103 -97 305 -97 440 0 86 13 89 30 5 32
-154 184 -515 298 -707 92 -155 286 -375 331 -375 32 0 26 21 -22 77 -119 139
-169 233 -203 382 -27 115 -46 385 -26 366 6 -5 35 -84 65 -175 30 -91 75
-209 100 -262 78 -167 195 -331 259 -364 25 -13 28 -13 28 2 0 9 -20 47 -45
84 -25 38 -57 94 -70 125 -27 60 -69 204 -63 211 3 2 23 -32 47 -76 23 -43 57
-104 75 -135 19 -30 42 -88 51 -128 45 -185 126 -387 210 -523 40 -63 86 -106
100 -92 3 3 -19 68 -50 145 -60 152 -80 222 -93 325 -10 76 -3 80 23 11 58
-155 164 -321 301 -473 156 -174 227 -293 244 -412 14 -93 -4 -179 -41 -199
-28 -15 -23 -29 11 -29 64 0 110 82 117 210 6 107 -24 217 -91 334 -25 44 -43
82 -40 85 9 8 141 -134 181 -195 48 -72 84 -183 91 -276 6 -88 20 -92 42 -13
20 70 -2 244 -39 313 -20 37 3 25 60 -33 66 -66 154 -209 176 -284 9 -31 17
-87 17 -126 1 -88 -20 -130 -75 -154 -45 -20 -41 -31 11 -31 49 0 99 35 130
90 19 35 25 63 28 130 4 93 -13 166 -61 272 -36 78 -15 66 65 -35 85 -108 102
-138 129 -226 21 -72 22 -73 35 -48 8 14 15 45 16 70 2 32 6 42 14 36 26 -21
88 -171 113 -272 15 -59 31 -108 36 -108 6 0 27 63 47 140 37 139 60 197 102
256 l21 30 5 -84 c3 -52 10 -86 17 -88 7 -3 22 30 38 84 37 121 79 197 151
270 67 69 100 84 65 31 -99 -150 -129 -322 -77 -433 36 -79 104 -127 157 -110
20 7 19 9 -17 29 -111 61 -98 248 32 449 45 69 135 167 153 167 5 0 -4 -37
-21 -82 -37 -102 -43 -219 -14 -280 10 -21 22 -35 27 -32 5 3 9 38 9 78 0 86
19 156 68 250 36 69 135 180 201 226 37 26 36 23 -20 -60 -20 -30 -54 -95 -75
-145 -31 -74 -38 -105 -42 -177 -4 -80 -2 -93 22 -142 31 -64 86 -116 121
-116 31 0 31 2 -1 37 -14 15 -33 42 -42 58 -23 43 -19 147 7 216 30 79 126
219 222 323 159 174 244 308 319 508 19 49 35 87 36 85 6 -5 -16 -141 -38
-242 -22 -99 -97 -266 -163 -363 -23 -33 -24 -37 -8 -41 20 -4 73 51 152 157
85 113 146 260 182 442 20 96 43 152 123 294 43 77 76 113 76 83 0 -33 -53
-164 -110 -271 -34 -64 -60 -122 -57 -129 6 -16 112 94 160 165 104 157 199
386 242 580 9 43 21 78 25 78 16 0 22 -147 11 -236 -13 -99 -45 -227 -73 -292
-27 -65 -97 -169 -166 -247 -35 -38 -58 -71 -52 -73 19 -7 95 46 158 110 90
91 200 244 280 388 91 163 123 237 198 460 35 102 64 181 65 175 1 -5 0 -55
-1 -110 -2 -121 -35 -255 -86 -356 -19 -39 -34 -75 -32 -81 9 -27 105 88 156
189 39 75 71 209 83 342 10 112 10 145 -5 246 -9 65 -14 120 -11 123 9 10 95
-187 111 -256 12 -50 15 -99 11 -197 -6 -152 -33 -247 -98 -344 -45 -67 -46
-71 -20 -71 61 0 228 311 312 580 32 103 33 108 33 300 1 216 -11 300 -63 435
-16 41 -26 75 -22 75 4 0 23 -11 41 -25 83 -61 340 -110 456 -87 146 30 274
130 274 216 0 42 -15 37 -51 -16 -79 -117 -260 -144 -390 -57 -59 38 -138 117
-190 190 -45 61 -212 340 -207 345 2 1 44 -13 93 -32 183 -71 338 -69 455 7
49 32 66 50 85 92 28 59 30 75 13 112 -15 33 -28 32 -28 -2 0 -62 -71 -133
-153 -154 -145 -36 -304 40 -439 209 l-61 77 70 6 c89 8 129 21 222 71 128 67
181 121 181 182 0 14 25 61 56 107 61 88 77 122 104 214 10 33 41 112 69 176
71 161 101 284 101 415 0 364 -132 584 -421 701 -45 18 -89 27 -168 31 -90 6
-106 10 -109 25 -3 14 4 17 45 17 93 0 229 55 310 124 91 79 135 189 112 281
-14 54 -52 105 -80 105 -19 0 -19 -1 3 -42 41 -81 25 -160 -47 -233 -51 -51
-91 -68 -170 -73 -73 -4 -206 18 -231 39 -8 6 -23 43 -35 83 -12 39 -30 88
-40 108 l-19 37 43 -19 c48 -22 164 -27 218 -9 42 14 95 53 110 80 16 30 6 33
-32 10 -43 -26 -140 -28 -201 -4 -70 27 -148 81 -160 111 -53 131 -102 216
-185 318 -50 61 -117 133 -148 161 l-57 51 36 -3 c20 -2 36 -1 36 2 0 19 -51
69 -96 95 -34 19 -61 43 -72 63 -34 66 -304 238 -446 285 -45 14 -33 30 24 30
81 1 190 80 190 139 0 44 -33 68 -43 31 -8 -30 -91 -62 -162 -63 -70 -1 -168
37 -305 117 -241 141 -643 270 -1020 326 -166 25 -494 34 -675 19z m219 -72
c15 -11 17 -18 8 -33 -6 -10 -12 -14 -12 -8 0 6 -11 16 -25 22 -14 6 -25 16
-25 22 0 14 33 12 54 -3z m-132 -31 c31 -13 75 -38 97 -55 l41 -32 11 24 c22
49 101 87 179 87 34 0 34 -1 -32 -38 -36 -20 -89 -58 -117 -84 -28 -26 -53
-43 -56 -38 -3 5 -53 41 -110 79 -94 63 -112 81 -81 81 6 0 37 -11 68 -24z
m-107 -57 c81 -39 133 -81 181 -144 47 -62 20 -57 -56 10 -86 76 -161 128
-225 156 -25 11 -45 22 -45 24 0 13 75 -11 145 -46z m530 3 c-79 -42 -141 -83
-205 -137 -54 -45 -64 -31 -18 25 62 75 195 149 268 149 19 0 7 -9 -45 -37z
m-733 -12 c106 -34 156 -64 238 -145 54 -52 149 -190 138 -200 -3 -3 -29 23
-59 57 -129 148 -238 235 -355 283 -51 21 -76 35 -61 35 4 0 48 -13 99 -30z
m923 1 c-130 -47 -260 -145 -379 -284 -27 -32 -51 -55 -54 -53 -10 11 83 152
129 196 86 83 242 159 324 159 26 0 23 -3 -20 -18z m115 -56 c0 -2 -24 -17
-52 -31 -65 -33 -189 -117 -214 -146 -12 -14 -14 -18 -4 -13 8 5 -17 -23 -57
-63 -82 -81 -144 -166 -199 -270 -70 -134 -47 -21 27 134 79 162 238 305 413
370 61 23 86 28 86 19z m-1118 -25 c77 -24 186 -97 274 -186 53 -52 74 -85
128 -196 35 -73 67 -149 70 -168 6 -32 5 -33 -7 -15 -7 11 -39 66 -70 122 -32
56 -81 127 -109 158 -87 96 -222 203 -308 245 -81 40 -98 53 -58 42 14 -3 19
-2 14 6 -9 15 -9 15 66 -8z m-187 -71 c144 -48 317 -163 416 -278 73 -84 157
-228 184 -313 24 -77 43 -168 32 -158 -2 3 -27 55 -54 115 -95 212 -248 385
-470 532 -51 34 -205 102 -293 129 l-45 14 70 -6 c39 -3 111 -19 160 -35z
m1605 30 c0 -3 -16 -9 -35 -12 -42 -7 -233 -93 -326 -148 -126 -73 -296 -255
-379 -403 -18 -33 -55 -114 -82 -180 -47 -116 -48 -119 -42 -66 7 61 84 285
117 340 142 239 392 423 631 464 78 13 116 15 116 5z m-1685 -113 c133 -51
170 -74 268 -174 113 -115 150 -160 166 -204 7 -18 17 -41 22 -51 8 -15 7 -16
-9 -6 -11 7 -30 32 -43 55 -25 46 -45 59 -33 22 9 -29 60 -99 67 -92 3 3 10
-4 17 -15 6 -12 15 -19 19 -16 5 3 12 -7 16 -22 3 -14 15 -38 26 -51 10 -14
19 -35 19 -48 0 -12 4 -25 8 -28 15 -9 35 -117 24 -128 -12 -12 -41 37 -46 79
-3 32 -48 115 -116 218 -26 39 -60 93 -75 120 -85 147 -279 307 -410 339 -83
20 -105 28 -101 35 8 13 107 -5 181 -33z m1578 -15 c-2 -10 -19 -25 -36 -35
-159 -82 -236 -147 -337 -281 -39 -53 -74 -94 -77 -91 -7 6 31 69 75 124 26
31 30 41 16 36 -11 -4 -4 7 16 24 19 17 31 31 25 31 -5 1 -28 -15 -50 -34 -23
-20 -31 -32 -20 -28 11 4 -5 -17 -36 -47 -50 -50 -76 -89 -163 -242 -15 -27
-33 -48 -41 -48 -7 0 -16 -6 -18 -12 -3 -7 -6 -3 -6 9 -1 17 3 21 16 16 14 -5
15 -1 10 25 -4 17 -2 34 3 37 6 3 10 14 10 24 0 33 102 173 179 248 94 91 198
160 327 218 55 25 102 45 106 45 3 0 4 -8 1 -19z m-1698 -62 c22 -8 42 -16 45
-19 3 -3 28 -22 56 -43 50 -35 74 -46 74 -29 -1 8 -67 52 -79 52 -5 0 -14 7
-21 15 -25 30 17 16 107 -35 126 -72 294 -252 293 -314 -1 -17 -10 -11 -48 31
-57 62 -142 133 -242 200 -83 56 -226 133 -246 133 -8 0 -11 6 -7 16 3 8 11
13 17 11 6 -2 29 -10 51 -18z m1862 3 c-26 -10 -51 -22 -55 -28 -4 -6 -47 -33
-97 -59 -115 -62 -193 -110 -227 -142 -14 -14 -31 -22 -37 -18 -7 3 -10 3 -9
-2 4 -11 -45 -59 -56 -55 -5 2 -6 -3 -4 -10 4 -8 -3 -13 -17 -13 -13 0 -21 3
-18 8 2 4 1 7 -2 7 -12 0 -57 -55 -83 -102 -16 -29 -34 -48 -44 -48 -10 0 -30
-18 -44 -40 -38 -57 -39 -49 -1 21 17 33 39 75 48 92 11 21 18 26 22 16 4 -10
8 -11 14 -2 35 50 205 208 273 256 14 10 40 28 58 42 28 20 78 38 232 83 19 5
49 10 65 10 26 0 24 -2 -18 -16z m-1989 -78 c160 -46 309 -141 463 -294 83
-82 119 -127 167 -210 60 -100 132 -268 147 -339 7 -32 6 -33 -8 -19 -9 9 -28
38 -43 64 -98 178 -98 180 -75 159 37 -33 -35 97 -89 158 -202 232 -342 338
-565 427 -44 17 -90 36 -103 41 -13 5 -21 13 -17 18 3 6 -3 15 -12 21 -24 15
26 5 135 -26z m2220 17 c-31 -10 -78 -32 -105 -48 -26 -16 -82 -42 -123 -57
-116 -43 -120 -44 -205 -101 -73 -48 -101 -75 -217 -202 -65 -72 -169 -214
-163 -223 8 -13 -74 -182 -85 -175 -5 3 -13 -3 -19 -12 -21 -38 -18 -5 5 62
105 299 313 541 579 670 110 54 272 103 340 104 l50 0 -57 -18z m-1456 -251
c44 -69 59 -110 41 -110 -13 0 -55 59 -112 153 -29 48 -71 108 -92 133 -66 76
-42 63 38 -21 42 -44 98 -114 125 -155z m1433 141 c3 -6 -16 -13 -42 -17 -27
-3 -78 -19 -115 -35 -36 -16 -70 -29 -75 -29 -17 0 83 52 136 70 63 22 87 24
96 11z m-2213 -18 c54 -21 167 -93 193 -123 16 -18 5 -15 -55 17 -41 23 -97
49 -123 58 -26 10 -43 21 -37 25 10 6 -13 21 -50 33 -9 4 -7 6 7 6 13 1 42 -6
65 -16z m2123 -33 c-3 -5 -14 -10 -23 -9 -14 0 -13 2 3 9 27 11 27 11 20 0z
m-2345 -36 c224 -40 426 -152 646 -357 56 -52 154 -181 154 -202 0 -5 -53 44
-117 109 -225 226 -472 359 -808 437 -55 12 -104 27 -110 32 -13 12 123 1 235
-19z m2740 7 c0 -4 -53 -21 -117 -36 -213 -49 -330 -95 -511 -198 -90 -52
-202 -146 -262 -222 -69 -87 -122 -118 -79 -47 71 119 199 240 340 323 95 55
258 127 333 146 140 36 296 54 296 34z m-2700 -219 c113 -39 172 -68 233 -114
29 -21 56 -38 61 -38 5 0 7 -3 4 -6 -3 -3 -36 11 -74 30 -38 20 -73 36 -80 36
-6 0 -32 12 -57 26 -62 34 -211 73 -289 75 -35 1 -67 5 -73 9 -5 4 -19 10 -30
14 -11 3 34 3 100 1 99 -3 135 -9 205 -33z m2640 24 c0 -2 -33 -14 -72 -26
-40 -12 -80 -24 -88 -27 -28 -11 -140 -41 -140 -37 0 2 19 13 43 25 71 37 257
84 257 65z m-1070 -40 c0 -2 -8 -10 -17 -17 -16 -13 -17 -12 -4 4 13 16 21 21
21 13z m-1913 -43 c-20 -2 -52 -2 -70 0 -17 2 0 4 38 4 39 0 53 -2 32 -4z
m1866 -18 c-10 -13 -22 -25 -26 -25 -4 0 0 11 10 25 10 13 22 25 26 25 4 0 0
-11 -10 -25z m-1718 5 c13 -6 1 -7 -35 -3 -30 3 -57 7 -59 9 -9 8 75 2 94 -6z
m2900 0 c-3 -5 -25 -9 -48 -9 l-42 2 35 7 c52 11 62 11 55 0z m-1348 -62 c-3
-8 -6 -5 -6 6 -1 11 2 17 5 13 3 -3 4 -12 1 -19z m1828 -48 c22 -7 60 -16 85
-21 39 -7 37 -7 -20 -4 -36 3 -153 7 -260 10 -107 3 -211 9 -230 12 l-35 7 40
7 c59 11 374 2 420 -11z m-3475 0 c10 -7 -21 -9 -95 -8 -86 1 -99 3 -60 8 78
11 139 11 155 0z m259 -110 c170 -19 370 -104 526 -222 124 -94 208 -178 177
-175 -11 0 -18 5 -16 9 3 4 1 8 -4 8 -6 0 -57 35 -114 78 -102 76 -219 141
-330 182 -32 12 -62 19 -67 16 -4 -3 -28 4 -52 15 -26 13 -67 22 -104 24 -49
2 -194 26 -252 41 -7 2 -13 10 -13 19 0 12 15 15 83 15 45 0 120 -4 166 -10z
m2783 -8 c12 -12 8 -13 -97 -31 -156 -27 -261 -53 -272 -68 -7 -9 -13 -13 -13
-9 0 5 -8 2 -17 -5 -15 -12 -16 -12 -10 6 6 16 2 15 -16 -6 -26 -31 -67 -55
-67 -39 0 5 -4 10 -10 10 -5 0 -9 -5 -7 -11 1 -6 -2 -13 -8 -15 -5 -2 -11 7
-11 20 -2 20 6 28 37 40 45 18 52 28 12 17 -102 -30 -347 -171 -458 -264 -27
-23 -63 -53 -79 -67 l-30 -25 17 25 c40 59 169 176 257 234 149 98 293 155
485 192 80 15 270 13 287 -4z m470 -7 c48 -9 102 -22 120 -30 43 -18 36 -18
-59 1 -43 9 -139 22 -213 29 l-135 12 100 2 c55 0 139 -6 187 -14z m-3164 -81
c58 -17 225 -95 218 -102 -2 -2 -18 4 -36 13 -17 9 -84 37 -148 62 -64 25
-119 48 -122 51 -3 3 3 2 13 -1 10 -4 43 -14 75 -23z m-216 -39 c118 -15 166
-28 281 -74 111 -44 185 -84 239 -128 26 -21 58 -46 70 -56 13 -10 3 -7 -22 7
-132 75 -256 128 -371 160 -217 59 -376 69 -534 32 -33 -8 -104 -24 -158 -36
-124 -27 -191 -56 -183 -77 5 -13 4 -14 -9 -3 -13 11 -14 10 -10 -3 4 -8 1
-18 -6 -23 -8 -4 -10 -3 -5 4 12 20 -19 14 -44 -8 -30 -26 -60 -27 -53 -2 11
43 211 140 376 183 156 41 262 47 429 24z m3083 1 c195 -29 425 -130 570 -251
40 -34 25 -31 -79 10 -99 40 -213 60 -409 71 -70 3 -130 10 -132 15 -3 4 -31
6 -63 4 -52 -4 -54 -3 -22 6 19 6 64 16 100 21 64 11 144 -2 450 -68 50 -10
-73 47 -160 76 -151 49 -248 64 -425 63 -243 -1 -434 -43 -635 -141 -124 -61
-127 -61 -50 -11 103 67 207 117 321 154 186 60 363 77 534 51z m-3040 -87
c91 -23 127 -44 41 -24 -31 7 -97 19 -147 26 -49 6 -92 16 -96 22 -8 14 103 1
202 -24z m-169 -53 c124 -27 127 -34 14 -30 -210 8 -286 13 -325 22 -36 8 -38
9 -15 15 75 19 222 16 326 -7z m797 -60 c4 -10 1 -13 -9 -9 -7 3 -14 9 -14 14
0 14 17 10 23 -5z m-481 -56 c107 -28 260 -89 384 -155 134 -70 342 -212 425
-289 185 -171 270 -221 379 -221 58 0 74 5 145 44 44 24 103 65 130 91 55 52
205 169 251 194 16 9 67 43 114 76 95 66 358 193 495 238 201 67 206 51 13
-43 -137 -67 -261 -141 -321 -191 -40 -34 -18 -30 64 12 103 51 297 122 429
156 124 32 380 52 380 30 0 -5 -24 -13 -52 -17 -210 -29 -503 -126 -727 -241
-162 -82 -137 -82 44 1 125 57 446 140 640 166 100 13 230 6 314 -16 99 -26
80 -33 -111 -38 -137 -3 -202 -10 -261 -25 -43 -11 -83 -24 -88 -29 -6 -6 63
-9 183 -9 l193 1 110 -39 c147 -52 375 -172 375 -197 0 -4 -35 4 -77 17 -134
42 -212 54 -393 60 -206 7 -220 -5 -39 -36 128 -22 298 -83 407 -148 37 -22
110 -77 162 -123 52 -45 119 -98 149 -118 51 -34 61 -36 150 -41 l96 -5 -54
-18 c-105 -33 -176 -16 -325 77 -184 116 -260 151 -431 195 -79 21 -215 39
-204 27 3 -3 66 -29 139 -56 302 -114 447 -222 667 -496 103 -127 185 -202
270 -245 63 -32 73 -34 167 -34 56 0 112 4 126 8 l25 8 -28 -25 c-73 -67 -252
-60 -387 16 -70 39 -168 122 -244 207 -97 107 -197 202 -255 239 -175 112
-606 247 -875 272 -102 10 -124 15 -110 24 28 16 320 11 434 -7 52 -9 96 -14
99 -12 5 5 -75 40 -138 60 -82 26 -163 34 -306 30 -125 -3 -153 -7 -265 -40
-69 -20 -134 -38 -145 -41 -24 -7 35 35 85 60 78 39 198 76 279 87 94 13 294
7 350 -10 49 -15 50 -6 2 19 -63 32 -262 39 -413 15 -120 -19 -288 -75 -435
-146 -88 -42 -121 -50 -82 -21 41 31 242 148 279 162 19 7 41 18 49 24 7 6 30
18 50 28 20 10 28 16 19 13 -11 -2 -18 1 -18 10 0 11 -9 11 -52 -5 -147 -52
-332 -141 -402 -195 -23 -17 -63 -46 -89 -64 -27 -18 -68 -53 -92 -77 -23 -24
-47 -44 -53 -44 -5 0 -13 -11 -16 -25 -4 -14 -11 -25 -16 -25 -12 0 8 41 44
89 14 19 26 28 26 21 0 -8 11 1 24 20 23 34 141 146 236 225 58 48 55 45 42
45 -13 0 -174 -108 -184 -123 -4 -6 -4 -15 -2 -19 3 -4 -1 -6 -8 -3 -12 5
-118 -94 -188 -175 -52 -60 5 58 72 147 21 29 35 53 30 53 -15 0 -81 -88 -142
-188 -106 -176 -193 -230 -350 -219 -87 7 -150 27 -196 62 -49 37 -121 136
-156 213 -29 66 -63 112 -80 112 -5 0 -2 -7 6 -16 15 -14 76 -137 76 -152 0
-4 -46 39 -102 95 -97 95 -283 232 -297 217 -6 -6 21 -31 144 -128 73 -58 145
-134 145 -152 0 -4 8 -17 18 -28 16 -20 16 -20 -3 -6 -11 8 -24 19 -30 25 -28
29 -128 107 -195 152 -115 77 -427 201 -474 189 -23 -6 -77 4 -72 13 3 3 -14
4 -37 2 -41 -4 -40 -5 33 -21 141 -31 228 -67 334 -135 28 -18 80 -49 116 -68
36 -20 76 -46 90 -57 37 -29 2 -27 -60 5 -96 49 -300 134 -369 155 -39 11
-101 24 -138 29 -114 14 -403 -14 -403 -39 0 -5 17 -6 38 -4 20 2 98 7 172 10
124 6 144 4 249 -21 104 -25 322 -118 308 -131 -3 -3 -45 6 -93 20 -273 78
-487 84 -666 19 -79 -28 -129 -62 -73 -48 95 22 168 29 325 27 168 -1 244 -10
348 -43 57 -19 34 -27 -30 -11 -98 24 -347 21 -469 -6 -134 -29 -439 -126
-534 -170 -127 -58 -180 -99 -371 -289 -189 -187 -247 -230 -363 -270 -117
-40 -255 -27 -308 29 -26 28 -26 30 -4 18 37 -19 133 -29 187 -19 135 25 266
125 424 324 190 239 314 327 638 455 73 29 131 54 129 57 -7 7 -179 -25 -277
-52 -101 -27 -233 -86 -308 -136 -129 -87 -270 -134 -353 -118 -24 4 -48 8
-52 9 -5 0 -6 4 -3 9 3 5 14 7 25 4 27 -7 129 14 176 37 23 11 79 54 126 96
46 42 110 95 143 117 130 88 346 170 521 197 44 7 84 16 88 20 12 11 -144 22
-200 15 -156 -20 -311 -48 -369 -66 -36 -11 -68 -18 -70 -16 -8 7 102 77 171
108 36 16 84 30 107 30 l43 2 -35 6 -35 7 38 17 c160 70 329 89 542 61 74 -10
47 10 -60 42 -84 26 -101 27 -265 27 -147 -1 -172 1 -157 12 10 7 50 21 89 31
82 20 259 15 414 -10 145 -25 426 -114 598 -191 99 -44 73 -20 -41 38 -137 70
-351 156 -484 196 -86 26 -247 61 -280 61 -5 0 -9 5 -9 10 0 15 135 12 232 -5
100 -17 383 -104 483 -148 39 -17 99 -48 135 -69 l65 -38 -65 61 c-79 74 -158
122 -321 196 -174 78 -183 90 -37 53z m-707 -2 c-153 -37 -357 -128 -495 -221
-36 -24 -89 -60 -119 -80 -30 -20 -89 -53 -130 -74 -42 -20 -79 -41 -82 -45
-3 -5 -35 -14 -71 -20 -51 -9 -85 -9 -154 2 l-89 14 90 8 c185 16 251 42 474
187 240 156 439 240 571 239 l45 0 -40 -10z m3942 -14 c91 -23 205 -82 371
-193 225 -151 327 -194 490 -208 93 -8 74 -23 -28 -23 -83 0 -168 19 -233 51
-23 12 -106 64 -184 115 -211 140 -336 203 -470 240 -32 9 -80 22 -108 30
l-50 13 77 -5 c42 -2 103 -11 135 -20z m-1181 -553 c-7 -10 -66 -33 -66 -25 0
4 57 32 68 34 2 0 1 -4 -2 -9z m2259 -120 c175 -62 312 -219 352 -403 30 -141
16 -399 -24 -439 -4 -4 -8 72 -8 169 0 157 -3 185 -23 251 -27 84 -38 92 -17
11 19 -72 19 -107 -1 -62 -10 22 -20 32 -29 28 -10 -3 -20 14 -36 62 -31 92
-100 166 -177 188 -54 16 -89 14 -200 -10 -13 -3 -20 -1 -17 5 4 5 14 9 23 9
9 1 28 7 42 15 45 26 -9 18 -69 -10 -30 -14 -56 -23 -58 -21 -3 2 3 18 11 35
21 40 21 88 -1 100 -10 5 -31 11 -48 12 -27 4 -30 1 -33 -28 -4 -39 -23 -47
-68 -28 -28 11 -34 19 -34 44 0 35 7 39 111 76 63 22 86 25 159 22 51 -3 109
-13 145 -26z m-5902 -18 c37 -18 67 -36 67 -42 0 -19 -17 -20 -48 -1 -32 19
-32 19 -20 0 7 -10 22 -21 35 -25 21 -5 33 -34 16 -36 -5 0 -16 -2 -25 -4 -10
-2 -20 5 -23 14 -3 10 -19 31 -36 47 l-31 29 -19 -24 c-13 -15 -19 -39 -19
-70 0 -26 -3 -50 -6 -54 -3 -3 -30 5 -59 17 -52 24 -81 22 -66 -3 5 -7 10 -12
12 -11 2 1 12 -2 21 -5 24 -9 12 -27 -13 -20 -37 12 -147 6 -185 -10 -22 -9
-56 -29 -76 -46 -21 -16 -38 -25 -38 -18 0 7 -8 5 -20 -6 -32 -29 -23 1 10 32
17 15 30 33 30 39 0 6 10 10 23 9 12 -1 36 7 52 17 25 16 26 18 6 13 -16 -5
-21 -4 -17 4 4 6 2 11 -3 11 -6 0 -11 -10 -11 -22 0 -20 -1 -20 -13 -4 -11 16
-16 14 -53 -18 -83 -71 -125 -221 -122 -439 l1 -132 10 122 c5 68 13 120 18
117 5 -3 9 7 9 23 0 15 5 35 11 43 8 12 10 10 5 -10 -2 -14 -10 -70 -17 -126
-15 -124 -2 -215 48 -337 19 -45 39 -100 44 -122 5 -22 12 -49 16 -60 5 -17 4
-17 -9 -4 -9 8 -19 26 -23 39 -3 14 -22 55 -42 93 -67 130 -83 196 -83 336 0
85 -3 121 -10 111 -15 -23 -11 -198 6 -265 8 -33 19 -75 24 -94 5 -19 12 -37
17 -40 12 -9 54 -88 63 -121 5 -18 5 -32 -1 -35 -5 -4 -9 0 -9 7 0 19 -58 138
-67 138 -5 0 -14 14 -22 32 -36 81 -50 130 -61 217 -31 244 28 460 161 587
112 106 215 145 374 141 88 -2 108 -6 168 -34z m1447 -82 l65 -6 -65 -7 c-185
-19 -343 -79 -441 -167 -85 -77 -173 -241 -196 -365 -16 -87 -23 -108 -41
-114 -33 -11 -25 144 13 243 57 153 124 251 213 312 69 48 96 59 215 88 97 25
131 27 237 16z m2908 -21 c81 -23 193 -76 233 -112 70 -62 160 -209 197 -323
23 -70 39 -205 24 -205 -18 0 -32 28 -52 104 -19 73 -73 195 -124 273 -40 64
-147 158 -221 196 -39 19 -106 42 -150 52 -143 30 -148 33 -60 34 53 1 106 -6
153 -19z m-3414 -57 c6 -7 -63 -81 -159 -171 -134 -124 -206 -216 -343 -435
-49 -78 -160 -298 -188 -372 -31 -83 -27 -24 5 90 39 134 104 263 233 465 19
30 47 78 61 106 14 27 43 67 64 88 l38 39 -35 -19 c-19 -11 -89 -74 -155 -141
-104 -107 -145 -140 -145 -117 0 9 165 216 192 241 31 28 189 122 312 183 104
53 109 54 120 43z m3396 -39 c47 -12 64 -23 118 -79 34 -36 62 -70 62 -76 0
-6 -18 12 -40 40 -47 59 -92 85 -197 112 -42 10 -79 21 -82 24 -7 8 71 -4 139
-21z m408 -10 c167 -79 264 -139 331 -204 70 -69 207 -259 175 -242 -11 6 -71
61 -134 124 -102 100 -184 162 -245 184 -11 4 13 -21 53 -55 87 -76 103 -98
220 -311 90 -163 139 -274 162 -360 6 -25 14 -54 17 -65 3 -11 -35 59 -84 155
-49 96 -107 202 -128 235 -21 33 -59 92 -83 130 -25 39 -109 134 -186 213
-102 104 -133 140 -111 132 16 -6 36 -16 45 -22 8 -6 1 2 -16 18 -37 35 -69
57 -80 56 -5 0 -17 4 -27 9 -14 8 -15 12 -5 24 7 8 14 14 16 15 1 0 37 -16 80
-36z m-3478 2 c-41 -12 -92 -30 -113 -39 -21 -9 -35 -12 -32 -6 14 22 135 67
185 67 27 1 19 -4 -40 -22z m2663 -11 c72 -21 142 -63 176 -106 17 -21 31 -40
31 -44 0 -3 -25 15 -55 40 -44 36 -77 51 -170 80 -63 20 -115 41 -115 46 0 12
59 5 133 -16z m-2148 5 c-3 -5 -18 -10 -33 -10 -37 0 -166 -36 -211 -60 -21
-10 -61 -37 -89 -60 -62 -48 -67 -40 -13 21 41 47 104 84 180 104 56 16 175
19 166 5z m723 -94 c33 -31 72 -56 105 -67 48 -17 49 -18 19 -19 -60 0 -137
53 -205 141 -35 46 -35 63 1 24 15 -16 51 -52 80 -79z m-1528 -51 c-7 -8 -25
-42 -41 -75 -15 -33 -31 -60 -35 -60 -3 0 -3 17 1 38 4 23 20 51 43 75 36 37
56 51 32 22z m3611 -7 c18 -20 23 -28 16 -28 -2 0 -14 11 -27 25 -13 14 -20
25 -15 25 4 0 16 -10 26 -22z m-2762 -53 c16 -8 31 -22 35 -30 33 -86 -57
-146 -141 -95 -46 27 -46 77 -2 114 35 29 67 33 108 11z m1996 0 c89 -36 53
-150 -46 -147 -103 3 -104 156 -1 161 7 1 28 -6 47 -14z m-2964 -221 c-10 -47
-10 -48 -7 -7 2 24 -1 44 -7 46 -7 2 -7 9 -2 18 5 7 10 21 10 29 4 46 9 49 12
9 2 -25 -1 -68 -6 -95z m42 59 c-3 -43 -7 -80 -9 -82 -2 -2 -4 32 -4 77 0 47
4 82 10 82 6 0 7 -29 3 -77z m-224 -15 c-12 -23 -54 -92 -94 -153 -39 -60 -84
-131 -99 -157 -35 -59 -46 -68 -36 -25 10 41 52 132 104 221 37 65 132 173
143 162 2 -2 -5 -24 -18 -48z m4270 -34 c69 -73 126 -178 164 -300 47 -148 43
-195 -4 -55 -27 79 -75 170 -149 281 -80 121 -92 140 -81 140 5 0 36 -29 70
-66z m-5452 -16 c-3 -7 -5 -2 -5 12 0 14 2 19 5 13 2 -7 2 -19 0 -25z m1983 6
c0 -29 52 -116 94 -159 78 -77 211 -106 320 -69 56 19 146 98 183 161 29 49
43 44 43 -16 0 -74 -86 -166 -192 -206 -75 -28 -196 -19 -278 22 -71 35 -141
96 -166 145 -20 39 -33 155 -16 144 7 -4 12 -14 12 -22z m208 -57 c47 -28 149
-34 191 -12 18 9 31 12 27 7 -11 -18 -71 -40 -101 -38 -90 9 -166 43 -184 83
-19 41 -12 48 12 13 12 -19 37 -43 55 -53z m2402 -6 c-12 -85 -24 -107 -94
-160 -86 -67 -138 -85 -236 -85 -190 1 -320 106 -308 249 l3 40 17 -31 c65
-119 187 -204 293 -204 80 0 147 24 202 74 49 45 113 151 113 189 0 14 3 18
10 11 7 -7 7 -33 0 -83z m-3248 39 c2 -22 0 -40 -4 -40 -5 0 -8 18 -8 40 0 22
2 40 4 40 2 0 6 -18 8 -40z m2044 14 c43 -18 96 -59 88 -67 -3 -3 -25 1 -47 9
-69 25 -164 29 -247 10 -41 -10 -80 -22 -87 -28 -8 -6 -16 -9 -18 -6 -12 11
82 83 124 95 54 15 133 10 187 -13z m788 -65 c73 -33 167 -19 225 34 l24 22
-14 -24 c-35 -59 -194 -83 -258 -38 -18 12 -42 38 -53 57 l-20 35 27 -34 c16
-18 47 -42 69 -52z m2538 21 c-2 -17 -9 -33 -14 -36 -5 -4 -7 8 -5 27 6 41 5
39 15 39 5 0 7 -14 4 -30z m-2276 -8 c-8 -16 -22 -35 -32 -43 -10 -8 -5 4 11
29 32 48 42 55 21 14z m31 -19 c-65 -125 -261 -152 -357 -49 -21 24 -22 26 -5
20 11 -4 27 -13 35 -20 8 -7 49 -16 90 -19 106 -10 181 13 218 65 31 43 40 45
19 3z m-2583 -38 c85 -163 226 -239 441 -238 79 1 117 6 180 26 84 27 163 43
255 51 l55 5 -23 -19 c-13 -11 -40 -24 -60 -30 -21 -6 -46 -17 -56 -25 -11 -8
-39 -15 -62 -15 -24 0 -55 -5 -71 -11 -15 -6 -71 -19 -123 -30 -121 -24 -240
-18 -318 17 -106 47 -211 145 -251 233 -16 38 -18 91 -2 91 3 0 19 -25 35 -55z
m274 2 c23 -8 42 -11 42 -6 0 5 13 3 30 -6 30 -15 160 -22 160 -7 0 4 13 16
28 26 27 20 27 20 10 0 -19 -22 -24 -39 -9 -29 5 3 12 1 15 -3 10 -17 -64 -42
-123 -42 -94 0 -194 46 -222 103 l-10 22 18 -22 c10 -12 37 -28 61 -36z m272
50 c0 -2 -10 -12 -22 -23 l-23 -19 19 23 c18 21 26 27 26 19z m2290 -30 c0
-36 -36 -111 -72 -152 -23 -26 -74 -69 -115 -96 -64 -43 -87 -53 -161 -66 -73
-14 -99 -14 -173 -4 -48 7 -116 21 -151 32 -35 10 -77 19 -95 19 -17 0 -34 4
-37 9 -3 5 -36 21 -73 37 -38 15 -72 32 -78 37 -18 17 138 -4 218 -30 224 -70
337 -70 494 2 88 40 149 96 187 169 27 52 56 74 56 43z m-3250 -23 c-12 -13
-11 -17 1 -25 8 -5 23 -7 34 -3 58 17 75 17 75 -3 0 -18 -9 -21 -87 -26 -58
-4 -129 -18 -208 -42 -66 -20 -129 -39 -140 -42 -19 -6 -19 -5 -3 13 32 36
127 86 230 119 56 18 105 32 107 30 2 -3 -2 -12 -9 -21z m1905 7 c41 -18 109
-70 102 -77 -2 -2 -33 5 -68 17 -55 18 -79 20 -170 15 -58 -3 -119 -10 -135
-16 l-28 -11 19 22 c11 11 40 32 65 45 58 30 156 32 215 5z m1930 -68 c56 -29
121 -81 111 -90 -2 -2 -42 11 -87 30 -100 41 -135 52 -214 68 l-59 11 24 21
c16 13 21 21 13 24 -7 3 -13 9 -13 13 0 12 152 -40 225 -77z m1371 12 c-13
-35 -15 -37 -15 -13 -1 15 4 30 9 33 6 3 11 16 11 28 1 13 3 16 5 7 3 -9 -2
-33 -10 -55z m-2399 49 c-3 -3 -12 -4 -19 -1 -8 3 -5 6 6 6 11 1 17 -2 13 -5z
m-2434 -105 c32 -42 76 -93 98 -114 45 -40 151 -95 185 -95 11 0 36 -8 55 -17
27 -14 58 -18 151 -17 64 0 115 -3 112 -8 -3 -4 -18 -8 -34 -8 -16 0 -45 -9
-65 -20 -52 -29 -139 -27 -215 5 -148 62 -167 75 -229 149 -54 66 -131 190
-131 211 0 12 6 4 73 -86z m869 19 c-7 -7 -12 -8 -12 -2 0 14 12 26 19 19 2
-3 -1 -11 -7 -17z m1146 -14 c-4 -3 -12 5 -18 18 -12 22 -12 22 6 6 10 -10 15
-20 12 -24z m-494 5 c51 -19 163 -105 152 -117 -3 -2 -21 5 -40 16 -96 57
-228 68 -326 28 -33 -14 -57 -20 -54 -14 4 6 1 8 -7 6 -8 -3 -13 -11 -11 -17
1 -7 -2 -10 -8 -6 -28 18 56 91 129 110 67 19 103 18 165 -6z m1387 -36 c-21
-79 -156 -187 -297 -238 -43 -15 -81 -32 -84 -36 -3 -5 -30 -7 -60 -5 -87 6
-342 85 -275 85 11 1 56 -6 100 -14 107 -19 187 -19 233 2 20 9 48 17 63 18
48 4 143 60 208 123 65 61 81 72 81 52 0 -5 5 -10 10 -10 6 0 10 6 8 13 -3 15
12 60 19 54 2 -3 0 -22 -6 -44z m-3169 8 l33 -29 -60 -7 c-156 -17 -232 -38
-393 -107 -130 -55 -147 -46 -42 24 162 106 256 142 387 147 34 1 49 -5 75
-28z m3610 8 c72 -24 167 -77 269 -149 68 -48 71 -52 39 -46 -19 3 -80 29
-135 56 -126 63 -246 95 -322 85 -30 -4 -52 -9 -48 -13 3 -3 -20 -15 -52 -27
-34 -12 -62 -28 -68 -41 -12 -24 -57 -76 -99 -113 -77 -69 -91 -81 -99 -81 -4
0 -5 -5 -1 -12 4 -7 3 -8 -5 -4 -6 4 -25 -2 -41 -14 -16 -12 -42 -23 -57 -26
-50 -9 -133 -37 -133 -46 0 -12 14 -10 27 3 6 6 30 12 52 13 23 0 41 5 41 11
0 5 4 4 9 -4 8 -12 16 -12 58 4 53 20 75 34 69 44 -3 4 5 13 17 21 21 12 21
12 7 -5 -14 -17 -14 -17 15 -2 41 21 144 128 149 154 6 31 45 72 90 95 53 27
123 21 207 -19 75 -35 174 -122 208 -184 l25 -44 -40 36 c-53 47 -118 90 -179
119 -58 26 -218 41 -251 22 -16 -10 -11 -11 28 -12 101 0 241 -72 327 -166 54
-59 96 -114 87 -114 -4 0 -41 28 -84 62 -117 93 -244 145 -334 136 -30 -3 -27
-5 35 -26 38 -12 92 -37 120 -56 60 -38 144 -112 137 -119 -3 -3 -49 15 -102
39 -84 38 -237 88 -245 80 -2 -1 25 -19 59 -39 80 -47 212 -151 198 -155 -6
-2 -22 3 -35 12 -77 51 -241 123 -253 111 -2 -2 16 -18 42 -36 36 -26 43 -35
34 -46 -6 -8 -14 -10 -17 -5 -3 5 -31 14 -61 21 -105 23 -108 23 -72 7 17 -8
32 -17 32 -19 0 -2 -15 -2 -32 1 -31 4 -30 2 22 -33 30 -20 45 -33 33 -30 -13
4 -32 0 -44 -9 -19 -13 -24 -13 -36 -1 -20 21 -88 37 -163 40 -36 1 -78 6 -95
10 -62 15 -9 -15 92 -53 57 -21 113 -48 127 -59 41 -36 72 -53 81 -46 4 5 5 3
2 -3 -7 -12 79 -42 90 -31 8 8 100 -39 146 -76 55 -43 38 -45 -31 -2 -33 20
-92 45 -131 55 -40 10 -84 26 -99 37 -40 27 -74 40 -123 47 -47 8 -68 14 -164
51 -33 13 -112 34 -175 45 -118 22 -209 58 -305 118 -27 17 -47 32 -43 32 4 0
47 -12 95 -27 71 -21 109 -26 196 -27 63 0 111 4 115 10 9 12 61 37 127 59 28
9 75 30 105 48 61 34 242 214 266 263 14 28 19 32 55 30 27 -2 44 3 56 16 9
10 12 18 7 18 -5 0 0 7 10 15 28 21 96 19 168 -6z m1448 -45 c0 -8 -4 -14 -9
-14 -6 0 -9 9 -8 19 1 22 17 18 17 -5z m-3286 -38 c50 -15 132 -64 122 -73 -3
-3 -45 3 -95 13 -80 16 -98 17 -173 5 -45 -8 -93 -18 -105 -22 -14 -5 -23 -5
-23 1 0 25 137 89 191 90 20 0 57 -6 83 -14z m-1756 -12 c27 -19 59 -77 44
-82 -5 -1 28 -41 73 -87 110 -111 186 -149 321 -160 33 -2 70 -6 84 -8 14 -3
46 -8 73 -12 26 -4 47 -12 47 -18 0 -12 78 -4 189 19 42 9 81 17 86 18 6 1 15
4 20 7 6 3 19 9 29 13 19 7 19 6 2 -13 -36 -39 -327 -149 -396 -149 -19 0 -55
-7 -80 -16 -25 -8 -72 -19 -105 -25 -33 -6 -77 -13 -97 -17 -34 -6 -38 -4 -38
15 0 11 3 20 8 19 4 -1 23 5 42 15 19 9 53 23 75 31 34 12 36 15 15 16 -14 1
-35 3 -48 6 -14 2 -21 0 -17 -6 4 -7 -3 -8 -21 -4 -21 5 -25 4 -19 -6 5 -8 4
-11 -2 -7 -11 7 -124 -26 -190 -55 -62 -26 -74 -22 -26 9 23 15 44 37 48 51 3
13 19 31 35 40 17 9 30 20 30 25 0 4 -11 0 -25 -9 -13 -8 -34 -17 -47 -19 -13
-1 -45 -6 -73 -9 -38 -6 -47 -5 -35 4 12 9 10 10 -10 5 -14 -4 -29 -11 -35
-16 -5 -5 -17 -9 -26 -9 -10 0 -59 -14 -110 -30 -51 -17 -96 -29 -101 -28 -12
4 128 120 187 155 28 16 73 37 100 47 70 26 81 40 25 31 -123 -18 -350 -101
-417 -152 -48 -35 -40 -11 9 31 72 62 237 154 318 177 66 18 71 29 14 29 -84
0 -219 -51 -296 -112 -26 -20 -38 -25 -38 -15 0 29 47 82 109 124 78 52 155
82 236 92 l60 7 -55 8 c-104 14 -242 -26 -355 -104 -49 -34 -63 -34 -46 -2 28
53 154 138 261 178 50 18 141 17 168 -2z m169 -107 c40 -45 67 -84 61 -86 -6
-2 -26 14 -44 35 -18 21 -44 50 -57 64 -27 29 -51 70 -40 69 4 0 40 -37 80
-82z m150 0 c85 -56 125 -71 252 -98 131 -27 266 -25 354 5 87 29 82 11 -7
-26 -186 -76 -337 -71 -506 18 -81 43 -180 119 -180 140 0 19 -1 20 87 -39z
m2793 33 c0 -18 -70 -88 -114 -114 -62 -36 -219 -85 -296 -92 -73 -7 -145 6
-210 37 -21 10 -46 19 -54 19 -20 0 -66 21 -66 31 0 4 26 -2 58 -13 51 -18 73
-20 222 -15 91 3 185 11 210 17 65 16 183 76 215 111 31 32 35 34 35 19z
m-1283 -34 c55 -25 135 -89 91 -73 -69 25 -118 31 -243 31 l-140 1 -58 -33
-58 -33 22 31 c28 37 55 55 128 87 76 32 170 28 258 -11z m-86 -66 c69 -13
205 -80 243 -119 36 -37 26 -39 -45 -7 -90 39 -156 51 -284 51 -125 -1 -153
-8 -269 -66 -22 -10 -41 -17 -44 -14 -11 11 71 74 142 109 109 53 166 63 257
46z m-3293 -35 c-3 -3 -9 2 -12 12 -6 14 -5 15 5 6 7 -7 10 -15 7 -18z m1823
-2 c13 -16 12 -17 -3 -4 -10 7 -18 15 -18 17 0 8 8 3 21 -13z m-1792 -69 c12
-19 16 -32 11 -29 -11 7 -43 65 -36 65 2 0 13 -16 25 -36z m3341 -7 c79 -28
292 -167 255 -167 -3 0 -18 8 -32 17 -26 17 -27 17 -20 0 5 -13 -11 -8 -66 22
-93 51 -219 89 -202 61 3 -5 21 -12 41 -16 19 -3 60 -23 92 -44 74 -49 179
-146 169 -156 -4 -4 -13 -2 -19 4 -7 7 -20 12 -30 12 -10 0 -28 10 -40 22 -24
24 -106 68 -127 68 -7 0 12 -19 42 -41 l56 -42 -69 -68 c-82 -80 -92 -107 -19
-49 45 35 57 40 102 40 62 -1 114 -18 168 -56 106 -73 157 -149 182 -272 24
-113 -4 -189 -84 -234 -20 -11 -36 -26 -36 -33 0 -9 10 -6 31 9 47 35 57 39
50 22 -8 -22 -108 -96 -141 -105 l-28 -8 29 -12 c24 -10 36 -8 80 12 144 67
199 198 165 394 -6 35 -9 67 -6 70 11 10 157 -68 192 -103 39 -39 47 -61 16
-44 -11 5 -30 10 -43 9 -20 0 -20 -1 -5 -8 10 -4 18 -11 17 -16 -1 -5 20 -15
45 -22 48 -12 95 -46 95 -69 0 -9 -8 -10 -32 -3 -78 22 -166 2 -228 -51 -20
-18 -21 -21 -5 -15 11 4 38 14 60 22 73 27 150 14 269 -45 95 -47 187 -114
174 -127 -3 -3 -43 13 -90 35 -111 52 -205 74 -283 65 -89 -9 -104 -25 -25
-25 129 -1 251 -46 410 -153 78 -53 170 -138 170 -157 0 -7 -22 5 -50 25 -79
58 -222 132 -307 158 -125 40 -156 41 -68 4 143 -60 214 -106 321 -209 119
-115 169 -184 189 -259 22 -80 18 -90 -11 -34 -15 28 -41 70 -59 95 -43 59
-169 180 -220 212 -42 26 -155 79 -155 73 0 -2 18 -17 41 -33 73 -54 197 -172
247 -235 97 -122 154 -253 170 -386 9 -80 2 -82 -18 -6 -22 88 -97 234 -164
318 -74 95 -111 131 -124 123 -5 -3 -18 4 -28 17 l-19 22 25 -20 25 -20 -19
22 c-10 13 -23 20 -27 17 -5 -3 -12 2 -15 10 -7 18 -120 106 -136 106 -6 0 2
-10 18 -22 16 -13 38 -34 49 -48 11 -13 44 -51 74 -83 110 -118 188 -246 231
-379 24 -76 41 -213 29 -243 -6 -16 -8 -14 -8 11 -1 48 -38 160 -81 244 -21
41 -47 95 -59 120 -24 53 -106 150 -127 150 -8 0 -55 41 -105 91 -50 50 -93
88 -96 86 -2 -3 32 -47 76 -99 84 -98 224 -328 256 -423 46 -137 55 -247 26
-310 l-19 -40 5 50 c7 66 -12 155 -49 230 -17 33 -31 70 -33 81 -4 27 -34 92
-47 100 -5 3 3 -18 17 -47 31 -62 27 -58 -39 29 -45 59 -58 93 -23 57 25 -24
29 -18 9 13 -10 15 -36 53 -56 85 -38 59 -181 217 -197 217 -5 0 2 -18 17 -41
34 -55 25 -59 -16 -7 -35 43 -101 107 -127 122 -8 4 13 -25 47 -65 135 -161
177 -234 275 -470 31 -74 59 -141 62 -149 6 -13 4 -13 -9 -2 -33 27 -128 181
-191 312 -57 116 -127 223 -127 193 0 -5 9 -19 21 -31 11 -12 17 -27 14 -32
-3 -6 -2 -10 4 -10 12 0 45 -59 37 -67 -2 -3 -11 4 -18 16 -7 12 -19 21 -26
21 -7 0 -11 4 -7 10 3 5 -6 27 -20 49 -14 23 -25 43 -25 46 0 13 -75 105 -78
95 -2 -5 12 -36 31 -67 97 -160 142 -279 111 -290 -6 -2 -31 34 -54 79 -55
106 -99 170 -111 163 -5 -4 -7 -10 -4 -15 3 -4 -2 -7 -11 -6 -8 1 -20 9 -25
17 -12 19 -11 3 1 -19 5 -9 25 -48 43 -87 18 -38 46 -91 61 -117 71 -121 -48
8 -133 145 -24 37 -47 67 -53 67 -6 0 -7 -7 -4 -16 13 -33 18 -64 11 -64 -11
0 -55 49 -55 62 0 6 -3 9 -6 5 -6 -6 63 -140 113 -219 56 -91 -39 -2 -104 97
-22 33 -53 85 -68 115 -35 66 -34 64 -40 59 -2 -3 3 -24 11 -48 22 -64 8 -63
-21 2 -13 32 -27 57 -29 57 -8 0 37 -137 60 -180 42 -78 62 -111 81 -132 18
-20 18 -21 -2 -8 -39 24 -175 218 -247 353 -58 108 -40 49 27 -89 71 -145 96
-210 71 -184 -19 20 -116 214 -132 264 l-13 41 6 -55 c3 -30 17 -86 30 -124
12 -38 20 -72 17 -75 -20 -19 -103 142 -146 282 -20 67 -21 127 -3 182 6 16 5
17 -4 5 -35 -48 -31 -139 13 -345 20 -89 19 -95 -4 -67 -21 25 -60 123 -60
150 0 9 -7 31 -16 47 -30 55 -15 200 28 277 13 23 35 43 57 52 20 8 50 26 66
40 27 22 29 27 17 47 -12 18 -12 23 0 31 28 20 105 50 153 60 178 37 254 149
191 283 -34 74 -73 114 -141 146 -72 35 -91 36 -145 7 -42 -23 -82 -80 -73
-105 2 -7 0 -20 -6 -30 -6 -10 -11 -12 -11 -5 0 24 -19 11 -44 -32 -24 -42
-51 -60 -86 -61 -8 0 -16 -8 -18 -18 -4 -21 11 -22 28 -2 7 8 20 15 29 15 14
-1 14 -2 -1 -11 -10 -5 -18 -17 -18 -26 0 -14 4 -13 23 5 31 29 39 28 26 -5
-12 -33 -26 -43 -61 -43 -15 0 -30 -4 -33 -10 -4 -6 -19 -4 -42 5 -27 12 -38
12 -44 4 -5 -8 -15 -6 -37 9 -16 12 -32 19 -35 16 -2 -3 -13 16 -22 43 -10 26
-29 73 -43 103 -14 30 -24 61 -23 68 1 8 -3 20 -9 27 -7 8 -9 19 -5 25 5 9 -1
12 -21 9 -4 0 -10 5 -14 11 -4 6 -25 14 -46 17 -137 18 -275 -117 -261 -255 3
-29 14 -67 24 -85 20 -35 110 -87 152 -87 14 -1 37 -7 50 -14 l24 -13 -24 -18
-24 -17 35 6 c107 20 105 20 125 -10 12 -19 15 -32 8 -43 -7 -11 -1 -22 24
-44 18 -16 47 -51 65 -78 34 -52 45 -58 29 -15 -7 16 -7 26 -1 26 28 0 70
-124 70 -207 0 -38 4 -55 15 -59 8 -4 15 -13 15 -21 0 -8 5 -11 11 -7 8 4 9
-1 3 -17 -5 -13 -9 -51 -8 -84 0 -32 -1 -54 -4 -47 -3 9 -7 8 -17 -1 -7 -7
-11 -15 -8 -19 2 -5 -1 -8 -8 -8 -9 0 -10 17 -5 65 4 36 9 72 12 80 4 8 1 15
-4 15 -6 0 -18 -26 -27 -57 -21 -78 -42 -124 -70 -159 l-24 -29 15 65 c8 36
24 103 35 150 27 109 34 188 20 223 -15 39 -29 26 -24 -24 8 -78 -47 -327 -69
-313 -5 3 -6 -7 -3 -23 5 -21 4 -24 -4 -13 -8 12 -12 9 -17 -17 -5 -26 -52
-83 -68 -83 -2 0 5 17 16 39 12 25 21 69 24 127 l5 89 -32 -80 c-47 -115 -119
-234 -119 -195 0 6 9 28 20 49 21 42 60 141 60 154 0 22 -20 -1 -62 -71 -25
-42 -56 -86 -68 -97 l-23 -20 8 25 c4 14 22 63 40 110 56 148 58 197 2 88 -48
-92 -140 -220 -190 -262 -26 -21 -49 -37 -51 -35 -3 2 11 29 30 59 57 89 84
147 88 190 2 22 0 38 -4 35 -5 -3 -10 -1 -12 5 -1 5 -11 -4 -20 -20 -9 -17
-13 -30 -8 -30 5 0 12 9 15 21 4 11 9 18 12 15 6 -6 -63 -132 -78 -142 -6 -3
-3 8 6 26 29 56 8 44 -36 -22 -47 -69 -126 -158 -141 -158 -5 0 5 20 22 45 39
56 74 134 65 143 -6 7 -26 -14 -45 -48 -5 -8 -11 -13 -14 -10 -7 8 29 77 70
135 19 28 46 73 60 100 l25 50 -30 -35 c-16 -19 -40 -52 -53 -73 -13 -21 -36
-55 -51 -75 -16 -20 -50 -73 -78 -118 -27 -45 -56 -88 -66 -95 -15 -13 -16
-12 -9 11 11 39 35 134 40 164 5 30 44 102 84 155 40 54 9 32 -47 -34 -34 -39
-78 -111 -126 -210 -79 -159 -167 -305 -185 -305 -6 0 -4 15 6 38 9 20 38 96
65 167 53 140 145 302 216 385 25 27 41 50 36 50 -18 0 -102 -98 -148 -173
-26 -43 -49 -76 -51 -74 -2 2 12 33 32 70 25 47 31 67 21 67 -7 0 -14 -6 -14
-13 0 -7 -15 -35 -34 -62 -38 -54 -55 -90 -39 -80 27 17 2 -19 -66 -95 -42
-47 -91 -108 -110 -137 -49 -75 -84 -187 -84 -270 l-1 -68 -16 30 c-22 40 -20
149 2 240 17 68 97 254 114 265 15 10 71 107 71 124 0 10 5 14 10 11 6 -3 11
-1 11 4 1 6 2 15 3 20 0 5 5 13 10 18 5 5 6 2 1 -6 -5 -10 -4 -12 4 -7 6 4 18
22 27 39 9 18 37 53 62 80 48 49 46 63 -4 25 -77 -59 -163 -154 -237 -265 -45
-67 -83 -120 -85 -118 -6 5 36 74 61 103 11 12 16 22 10 22 -16 0 -84 -112
-78 -128 3 -8 -9 -45 -26 -84 -17 -38 -38 -106 -48 -151 -16 -71 -19 -78 -26
-54 -9 35 1 148 21 225 17 68 102 237 154 307 20 28 69 83 109 123 39 39 68
72 64 72 -15 0 -114 -71 -119 -85 -3 -8 -21 -23 -40 -34 -37 -22 -142 -158
-181 -234 -14 -28 -40 -95 -58 -151 l-34 -101 -1 58 c0 69 44 209 97 305 39
72 130 172 230 255 38 31 79 65 93 77 l25 21 -40 -16 c-132 -52 -293 -198
-364 -330 l-42 -80 6 45 c16 120 132 277 278 377 92 64 104 70 212 109 101 37
87 44 -27 15 -90 -23 -148 -49 -251 -114 -44 -26 -81 -46 -84 -43 -22 21 99
122 216 180 156 78 211 96 295 96 44 0 76 4 76 10 0 6 -38 10 -93 10 -91 0
-228 -28 -286 -59 -12 -7 -26 -10 -29 -6 -17 17 123 100 224 135 69 24 118 25
180 4 25 -8 48 -13 50 -11 10 10 -52 48 -103 63 -48 14 -58 14 -105 0 -29 -8
-55 -13 -58 -10 -3 3 13 21 35 39 38 33 99 55 148 55 32 0 55 25 31 34 -24 9
-73 7 -95 -4 -28 -15 -25 11 4 37 34 32 128 81 169 88 l36 7 -9 -43 c-6 -24
-11 -82 -12 -129 -2 -73 2 -93 24 -140 51 -109 142 -179 214 -166 19 4 35 10
35 14 0 4 -23 21 -50 37 -64 39 -71 55 -22 48 35 -5 33 -3 -23 26 -34 17 -62
26 -64 20 -5 -16 -26 22 -41 74 -16 58 -9 150 16 232 38 122 202 245 326 245
63 0 75 -7 126 -75 l22 -30 -12 30 c-7 17 -24 50 -39 75 -44 74 -45 85 -4 117
19 15 35 31 35 35 0 8 -124 -43 -208 -86 -30 -15 -58 -26 -64 -24 -14 5 132
118 202 155 33 18 92 44 132 58 66 22 69 24 28 19 -92 -11 -147 -27 -236 -70
-49 -24 -93 -44 -97 -44 -47 0 174 153 261 181 82 26 191 24 272 -4z m-3249
-52 c3 3 19 -9 35 -26 l29 -31 -30 15 c-16 8 -43 30 -60 49 -23 26 -24 28 -4
10 14 -12 28 -20 30 -17z m5692 -203 c50 -33 109 -61 163 -78 80 -25 94 -26
207 -20 67 3 138 8 157 11 67 10 -98 -43 -174 -55 -93 -15 -184 -2 -267 40
-135 69 -328 244 -334 304 -3 20 14 7 83 -63 48 -48 122 -111 165 -139z
m-4964 158 c-12 -23 -56 -75 -97 -116 -42 -41 -70 -74 -63 -74 20 0 1 -21 -33
-37 -17 -8 -43 -21 -58 -29 -61 -33 -189 -57 -273 -51 -73 5 -169 29 -187 45
-4 4 64 7 151 7 l158 0 96 48 c108 53 222 139 281 211 21 26 40 45 43 43 2 -3
-6 -24 -18 -47z m3051 17 c143 -85 317 -146 438 -152 42 -2 95 -14 142 -32
l75 -28 -63 -3 c-55 -3 -61 -5 -48 -18 9 -8 34 -23 58 -34 53 -24 27 -26 -64
-5 -166 38 -536 191 -515 212 3 2 22 -3 42 -12 65 -26 50 -9 -19 23 -58 27
-131 82 -109 82 4 0 33 -15 63 -33z m-1320 -13 c0 -29 -246 -164 -388 -214
-78 -27 -98 -31 -118 -21 -14 6 -23 15 -20 20 11 17 -19 18 -44 2 -13 -9 -21
-11 -17 -5 9 16 -38 24 -74 14 -16 -5 -29 -5 -29 -1 0 13 49 31 65 25 8 -4 21
-1 28 5 7 5 55 18 107 27 124 21 242 56 370 108 114 47 120 49 120 40z m1997
-60 c-3 -3 -12 -4 -19 -1 -8 3 -5 6 6 6 11 1 17 -2 13 -5z m-3733 -29 c-17
-25 -47 -47 -72 -51 -6 -1 -10 2 -6 7 3 5 9 7 13 5 4 -3 23 10 41 29 40 42 46
44 24 10z m4323 -21 c-9 -9 -28 6 -21 18 4 6 10 6 17 -1 6 -6 8 -13 4 -17z
m-3627 -38 c-12 -14 -36 -28 -52 -32 -17 -3 -47 -16 -67 -27 l-36 -21 19 22
c19 21 129 82 149 82 6 0 0 -11 -13 -24z m2472 -10 c177 -57 421 -165 510
-223 41 -27 46 -43 7 -22 -13 7 -37 16 -54 20 -16 4 -93 31 -170 59 -77 29
-146 53 -153 53 -23 1 -156 71 -160 85 -3 11 0 12 17 3 13 -7 21 -8 21 -2 0 6
-17 15 -37 21 -36 9 -76 30 -61 30 4 0 40 -11 80 -24z m-3272 0 c0 -2 -8 -10
-17 -17 -16 -13 -17 -12 -4 4 13 16 21 21 21 13z m1778 -6 c-8 -24 -468 -208
-538 -215 -22 -2 -49 -7 -60 -10 -11 -3 -20 -4 -20 -1 0 8 88 51 135 66 22 7
116 44 209 83 93 38 187 71 208 72 22 1 42 5 45 9 10 10 25 7 21 -4z m2577
-60 c4 -6 2 -10 -4 -10 -5 0 -13 5 -16 11 -4 5 -18 14 -32 20 -13 5 -21 14
-18 19 6 10 57 -20 70 -40z m-3440 20 c3 -5 2 -10 -3 -10 -4 0 -17 -9 -29 -19
-11 -11 -39 -29 -63 -41 -23 -12 -74 -42 -112 -66 -39 -25 -71 -44 -73 -42 -8
9 141 128 196 155 71 36 75 37 84 23z m797 -81 c-18 -16 -31 -29 -28 -29 2 0
29 11 60 25 64 28 75 25 17 -5 -53 -27 -121 -50 -148 -50 -13 0 -23 -4 -23 -8
0 -5 -11 -14 -25 -20 -31 -14 -33 1 -2 16 13 6 16 11 7 11 -8 0 -26 -9 -40
-20 -14 -11 -18 -18 -10 -14 8 4 6 -1 -5 -9 -11 -9 -25 -14 -32 -12 -7 3 -13
1 -13 -4 0 -6 -5 -10 -11 -10 -6 0 -47 -16 -91 -36 -152 -68 -88 -9 80 75 57
29 106 50 110 47 4 -3 46 15 92 39 47 24 87 41 90 38 3 -2 -10 -18 -28 -34z
m-1501 -100 c-66 -61 -72 -79 -11 -34 63 46 46 4 -21 -54 -35 -30 -109 -99
-165 -153 -92 -90 -127 -118 -108 -85 5 8 2 8 -9 -2 -9 -7 -17 -20 -17 -27 0
-19 -40 -82 -41 -64 0 9 -4 7 -9 -6 -14 -35 -122 -182 -205 -279 -42 -49 -91
-107 -108 -128 -28 -33 -113 -84 -123 -74 -2 2 21 29 51 61 72 77 179 219 256
342 34 54 78 124 97 154 51 82 252 274 366 352 55 37 102 65 105 62 3 -3 -23
-32 -58 -65z m4599 3 c91 -59 248 -206 334 -312 29 -36 89 -123 134 -195 79
-127 186 -270 263 -350 22 -23 39 -44 39 -48 0 -32 -187 151 -284 278 -30 39
-63 79 -75 89 -11 11 -21 25 -21 33 0 7 -7 13 -15 13 -8 0 -12 6 -9 14 3 8 -9
25 -31 42 -21 16 -34 33 -31 41 3 8 2 11 -3 8 -5 -3 -36 27 -69 67 -73 90
-142 155 -249 236 -75 57 -102 82 -89 82 3 0 17 -11 32 -25 28 -26 64 -36 44
-12 -47 57 -80 100 -80 104 0 6 8 1 110 -65z m-1212 -35 c34 -21 62 -41 62
-43 0 -10 -30 -3 -43 11 -8 8 -17 12 -19 9 -3 -2 -25 4 -49 15 -24 11 -38 20
-30 20 11 1 11 4 1 16 -7 8 -18 15 -24 15 -6 0 -24 11 -41 25 l-30 25 55 -27
c30 -14 83 -44 118 -66z m-1728 74 c0 -18 -61 -61 -103 -72 -68 -18 -171 -76
-362 -204 -100 -66 -218 -144 -263 -173 -99 -64 -285 -240 -338 -320 -53 -79
-57 -83 -49 -42 17 81 96 182 219 278 53 43 152 106 166 107 3 1 33 19 67 40
33 22 87 57 120 77 32 21 97 68 144 105 114 89 236 162 318 190 75 25 81 27
81 14z m1520 -18 c12 -12 7 -11 -20 2 -45 22 -52 29 -20 20 14 -4 32 -14 40
-22z m-117 -33 c45 -23 100 -57 122 -76 22 -20 33 -32 25 -28 -8 5 -21 9 -29
11 -8 1 -17 5 -20 10 -8 11 -47 28 -111 49 -51 16 -90 44 -90 65 0 16 18 10
103 -31z m182 10 c3 -5 -4 -6 -15 -3 -11 3 -22 9 -25 13 -3 5 4 6 15 3 11 -3
22 -9 25 -13z m-2425 -84 c0 -3 -25 -21 -55 -41 -30 -21 -55 -41 -55 -45 0 -5
-24 -23 -52 -40 -29 -18 -55 -36 -58 -40 -3 -4 -20 -17 -38 -28 -18 -11 -33
-23 -32 -28 1 -5 -4 -10 -11 -13 -7 -2 -9 1 -4 9 5 9 4 11 -4 6 -6 -4 -9 -11
-6 -16 3 -4 -8 -16 -23 -25 l-27 -18 20 23 c22 26 9 20 -45 -19 -50 -37 -153
-121 -165 -134 -5 -7 -29 -25 -53 -41 -24 -16 -63 -47 -88 -69 -25 -22 -47
-37 -49 -35 -6 6 198 207 265 260 122 97 347 240 450 286 31 13 30 13 30 8z
m3012 -39 c212 -99 491 -318 702 -551 77 -85 62 -90 -20 -6 -53 54 -247 223
-329 286 -27 21 -75 52 -106 69 -56 30 -165 100 -268 172 -123 87 -118 94 21
30z m723 -10 c73 -48 360 -338 374 -379 9 -25 4 -22 -36 24 -102 115 -241 251
-298 290 -33 23 -64 47 -68 55 -4 7 -20 25 -35 39 -31 30 -22 26 63 -29z
m-4505 16 c-1 -11 -100 -86 -106 -80 -6 5 85 87 97 87 5 0 9 -3 9 -7z m3645
-278 c129 -82 291 -272 320 -375 5 -18 -2 -12 -26 21 -91 124 -292 328 -375
380 -30 19 -54 37 -54 42 0 9 67 -25 135 -68z m507 -42 c18 -16 40 -38 48 -48
8 -11 -8 0 -36 25 -28 25 -72 61 -97 80 -26 19 -47 39 -47 43 0 9 71 -45 132
-100z m309 80 c13 -16 12 -17 -3 -4 -10 7 -18 15 -18 17 0 8 8 3 21 -13z
m-2620 -11 c-7 -2 -18 1 -23 6 -8 8 -4 9 13 5 13 -4 18 -8 10 -11z m2685 -35
c6 -9 5 -9 -7 0 -14 11 -19 13 -40 13 -5 0 -7 5 -4 10 7 12 39 -3 51 -23z
m-4571 -7 c-10 -11 -14 -20 -9 -20 5 0 4 -4 -1 -8 -48 -33 -273 -300 -352
-417 -88 -131 -163 -312 -193 -467 -8 -37 -17 -65 -22 -62 -4 3 -8 -14 -9 -38
l-1 -43 -10 34 c-7 24 -5 62 7 134 29 187 113 389 219 531 101 135 344 376
378 376 6 0 3 -9 -7 -20z m4755 -157 c67 -70 200 -248 258 -343 32 -54 98
-231 116 -311 22 -94 38 -263 27 -291 -6 -16 -9 -2 -14 53 -7 79 -44 230 -79
319 -66 172 -215 405 -351 551 -94 100 -135 149 -124 149 5 0 6 7 3 16 -9 23
78 -52 164 -143z m-4420 113 c0 -2 -8 -10 -17 -17 -16 -13 -17 -12 -4 4 13 16
21 21 21 13z m4375 -216 c10 -11 14 -20 9 -20 -5 0 -15 9 -22 20 -7 11 -11 20
-9 20 2 0 12 -9 22 -20z m36 -47 c13 -16 12 -17 -3 -4 -10 7 -18 15 -18 17 0
8 8 3 21 -13z m0 -33 c15 8 26 -1 66 -58 59 -81 105 -162 92 -162 -5 0 -20 18
-34 40 -14 22 -28 40 -31 40 -4 0 -1 -7 6 -15 7 -9 11 -18 8 -21 -9 -9 -79 96
-72 108 4 6 3 8 -3 5 -10 -6 -33 16 -63 58 -11 16 -11 17 0 8 9 -8 19 -9 31
-3z m-4614 -129 c-34 -54 -87 -144 -117 -199 -30 -56 -60 -102 -67 -102 -7 0
-17 -8 -23 -17 -21 -33 1 28 32 92 53 109 208 325 233 325 2 0 -24 -44 -58
-99z m4359 -52 c60 -78 120 -182 129 -224 6 -26 3 -23 -24 18 -17 26 -31 50
-31 53 0 3 -27 46 -60 96 -33 49 -60 94 -60 100 0 5 -4 6 -10 3 -5 -3 -10 -2
-10 3 0 4 -17 28 -37 53 l-38 44 45 -39 c25 -22 68 -70 96 -107z m245 34 c13
-16 12 -17 -3 -4 -10 7 -18 15 -18 17 0 8 8 3 21 -13z m48 -75 c12 -21 20 -38
18 -38 -7 0 -47 65 -47 75 0 10 1 8 29 -37z m151 -39 c0 -6 -4 -7 -10 -4 -14
9 -13 -8 2 -23 9 -9 9 -12 1 -12 -17 0 -25 18 -18 40 6 20 25 19 25 -1z
m-1696 -55 c5 -14 4 -15 -9 -4 -17 14 -19 20 -6 20 5 0 12 -7 15 -16z m-3663
-41 c-12 -20 -14 -14 -5 12 4 9 9 14 11 11 3 -2 0 -13 -6 -23z m3899 -8 c14
-19 14 -19 -2 -6 -10 7 -18 18 -18 24 0 6 1 8 3 6 1 -2 9 -13 17 -24z m-1839
-118 c-10 -9 -11 -8 -5 6 3 10 9 15 12 12 3 -3 0 -11 -7 -18z m-1730 -10 c-10
-9 -11 -8 -5 6 3 10 9 15 12 12 3 -3 0 -11 -7 -18z m4328 -129 c18 -39 26 -67
20 -72 -6 -6 -14 -5 -21 3 -10 11 -10 13 0 7 7 -4 12 -1 12 8 0 9 -4 16 -10
16 -5 0 -10 8 -10 18 0 9 -7 26 -15 36 -14 19 -20 46 -10 46 2 0 18 -28 34
-62z m-2500 16 c-13 -14 -42 -35 -64 -45 -34 -17 -36 -17 -16 -2 14 10 41 30
60 45 46 34 51 35 20 2z m-324 -54 c-3 -5 -16 -15 -28 -21 -21 -10 -21 -9 2
10 25 23 36 27 26 11z m887 0 c-104 -9 -118 -20 -25 -20 39 0 91 -3 117 -6 30
-5 46 -3 46 4 0 6 -12 13 -27 15 -27 4 -27 4 3 6 49 2 262 -57 284 -79 13 -13
15 -20 7 -24 -7 -3 2 -4 18 -4 17 0 64 -13 105 -31 41 -17 76 -31 78 -31 9 0
-1 -50 -10 -51 -27 -2 -64 3 -80 12 -11 6 -18 6 -18 1 0 -6 8 -12 18 -16 81
-29 98 -32 119 -23 21 9 21 11 5 23 -12 9 -14 16 -6 24 14 14 67 2 59 -14 -3
-6 -8 -19 -11 -29 -13 -37 -79 -35 -351 8 -87 14 -194 30 -238 37 -87 12 -278
5 -336 -12 -48 -14 -318 -59 -397 -67 l-63 -6 7 29 c3 16 13 36 20 44 12 12
14 12 14 -3 0 -9 -4 -17 -10 -17 -5 0 -10 -7 -10 -15 0 -33 31 -12 50 34 32
73 98 117 223 146 51 12 57 12 46 -1 -11 -13 -9 -14 14 -3 15 7 24 15 22 19
-5 7 84 34 165 49 25 5 90 9 145 8 l100 0 -83 -7z m-1991 -43 c-6 -6 -11 -19
-11 -29 0 -10 -4 -18 -10 -18 -14 0 -12 14 8 56 12 26 18 32 20 19 2 -9 -1
-22 -7 -28z m2969 -21 l25 -28 -25 7 c-40 12 -51 24 -37 40 7 7 12 12 12 11 0
0 11 -14 25 -30z m-2774 -107 c-9 -19 -15 -27 -16 -18 0 18 24 72 28 60 1 -4
-4 -23 -12 -42z m1108 -24 c-4 -8 -11 -15 -16 -15 -6 0 -5 6 2 15 7 8 14 15
16 15 2 0 1 -7 -2 -15z m-30 -77 c6 -5 2 -8 -11 -8 -25 0 -26 3 -16 40 l8 25
3 -25 c2 -14 9 -28 16 -32z m635 28 c-11 -9 -130 -15 -124 -6 3 6 34 10 67 10
34 0 59 -2 57 -4z m148 -2 c-3 -3 -12 -4 -19 -1 -8 3 -5 6 6 6 11 1 17 -2 13
-5z m158 -15 c88 -13 110 -18 104 -23 -7 -6 -207 24 -232 35 -25 10 -20 10
128 -12z m-1007 -18 c3 -8 -1 -12 -9 -9 -7 2 -15 10 -17 17 -3 8 1 12 9 9 7
-2 15 -10 17 -17z m-16 -154 c-150 -91 -252 -163 -294 -209 -26 -28 -51 -49
-54 -45 -12 12 47 96 98 139 85 72 117 90 202 119 105 36 113 35 48 -4z m505
-35 c-38 -58 -93 -172 -116 -240 -45 -134 -11 -172 38 -43 40 105 184 336 203
325 4 -3 -5 -31 -21 -63 -56 -110 -102 -243 -111 -320 -26 -208 -40 -363 -40
-424 0 -38 -4 -66 -9 -63 -16 10 -23 77 -23 230 l0 151 -26 -75 c-21 -62 -26
-100 -30 -216 -2 -80 1 -172 7 -213 6 -41 9 -76 6 -79 -2 -3 -17 22 -32 54
-24 53 -28 73 -31 190 -3 91 1 163 13 237 15 102 15 127 -5 127 -11 0 -67
-179 -82 -265 -14 -77 -18 -413 -5 -458 11 -41 -13 -31 -35 15 -58 122 -45
467 27 678 14 41 25 84 25 97 0 14 20 58 45 99 25 40 45 76 45 80 0 14 91 144
129 184 48 51 65 47 28 -8z m1605 -155 c120 -127 145 -148 215 -183 77 -38 79
-39 191 -39 93 0 110 -2 95 -12 -23 -17 -77 -33 -138 -39 -104 -12 -248 64
-360 189 -30 34 -91 113 -135 175 -70 99 -75 109 -43 83 21 -17 99 -95 175
-174z m-992 118 c25 -30 70 -102 100 -161 30 -58 60 -106 65 -105 21 4 2 90
-40 181 -24 52 -41 97 -38 100 3 3 20 -13 38 -35 100 -118 251 -450 286 -630
22 -109 19 -355 -5 -432 -34 -111 -43 -84 -49 150 -3 125 -12 241 -21 282 -24
119 -90 271 -131 305 -19 16 -19 8 6 -70 50 -162 79 -431 60 -575 -11 -88 -36
-181 -49 -189 -4 -2 -7 105 -8 237 -1 262 -15 366 -65 491 -31 78 -53 87 -45
20 3 -27 8 -115 12 -195 7 -144 6 -147 -26 -255 -45 -155 -66 -170 -36 -27 41
192 29 348 -34 469 -22 41 -40 83 -40 92 0 30 -67 226 -109 318 l-41 89 43
-46 c43 -46 123 -198 153 -289 17 -52 20 -55 43 -41 13 8 12 18 -2 69 -27 96
-54 162 -100 244 -48 84 -37 85 33 3z m-1558 -57 c-114 -160 -189 -235 -283
-281 -126 -61 -228 -67 -342 -18 l-42 18 115 -4 c98 -5 123 -2 172 15 82 29
142 73 238 176 121 129 210 216 220 216 5 0 -30 -55 -78 -122z m1148 112 c0
-5 -11 -51 -24 -102 -31 -125 -40 -198 -21 -198 15 0 44 81 74 205 18 79 19
80 26 42 4 -22 5 -64 2 -94 -8 -75 2 -153 19 -153 19 0 24 28 27 155 l2 110
34 -105 c18 -58 37 -116 40 -130 10 -32 41 -40 41 -10 0 12 -14 75 -30 142
-17 66 -29 125 -27 132 2 6 30 -43 61 -109 31 -66 87 -179 123 -252 64 -128
66 -136 75 -235 6 -68 5 -125 -2 -168 -18 -110 -30 -106 -30 10 0 106 -18 243
-44 335 -13 47 -14 37 -15 -173 -1 -236 -14 -342 -60 -475 -20 -57 -89 -182
-97 -174 -2 2 12 50 31 108 52 153 67 249 66 434 0 122 -4 177 -18 229 -10 38
-22 71 -28 73 -6 2 -10 -66 -10 -189 0 -204 -5 -241 -54 -378 -34 -99 -39 -63
-11 90 11 62 20 143 20 179 0 63 -24 224 -39 265 -4 11 -14 -55 -24 -152 -21
-210 -37 -322 -47 -322 -4 0 -10 66 -13 148 -9 197 -19 343 -24 339 -2 -2 -10
-42 -18 -88 -17 -97 -21 -327 -6 -444 5 -44 8 -81 6 -83 -2 -2 -12 21 -23 50
-36 96 -47 193 -47 398 l1 194 -18 -41 c-59 -136 -63 -381 -9 -578 17 -60 37
-132 45 -159 14 -44 14 -47 0 -35 -20 16 -61 97 -85 166 -55 162 -71 427 -35
593 11 47 18 96 18 109 -2 29 35 135 91 258 38 83 57 111 57 83z m1002 -16
c85 -43 206 -170 183 -192 -2 -3 -41 29 -85 72 -44 42 -104 88 -134 103 -30
15 -53 30 -50 35 9 14 33 9 86 -18z m-1559 -26 c-48 -42 -144 -155 -200 -238
-42 -62 -69 -117 -104 -213 -41 -111 -53 -120 -45 -34 8 78 24 133 69 227 48
103 258 299 320 300 5 0 -13 -19 -40 -42z m187 -50 c-52 -100 -90 -205 -90
-248 0 -15 -25 -79 -54 -141 -30 -63 -64 -148 -76 -189 -29 -107 -44 -293 -33
-413 9 -102 5 -124 -20 -114 -23 9 -38 88 -44 235 -10 231 29 402 149 652 48
101 192 310 213 310 2 0 -18 -42 -45 -92z m1203 -21 c89 -93 198 -279 231
-397 6 -19 5 -21 -3 -10 -9 12 -11 11 -11 -7 0 -12 4 -32 9 -45 4 -13 11 -41
15 -63 4 -30 -1 -22 -23 35 -67 179 -210 420 -319 541 l-46 51 44 -22 c25 -13
71 -50 103 -83z m-1282 47 c-65 -74 -104 -139 -196 -325 -68 -137 -92 -199
-115 -293 -17 -65 -30 -137 -30 -160 0 -51 -14 -78 -23 -44 -19 71 3 258 47
384 62 184 194 381 302 452 26 18 49 32 52 32 2 0 -15 -21 -37 -46z m1109 -21
c167 -188 285 -458 297 -684 7 -129 -10 -138 -32 -16 -9 50 -28 128 -42 172
-24 75 -208 451 -266 543 -38 59 -18 52 43 -15z m1084 5 c36 -50 8 -118 -48
-118 -17 0 -37 5 -44 12 -18 18 -15 88 5 110 23 25 68 23 87 -4z m-3245 5 c21
-5 23 -10 18 -49 -9 -86 -56 -118 -104 -72 -33 30 -31 80 3 107 28 22 44 25
83 14z m2645 -310 c39 -62 89 -186 99 -243 6 -35 6 -35 -8 -10 -18 32 -18 26
-1 -30 8 -25 15 -38 16 -30 5 40 19 -76 19 -161 1 -71 -4 -113 -20 -163 -22
-70 -36 -87 -18 -22 7 24 7 42 1 48 -6 6 -12 -3 -16 -23 -12 -63 -16 -21 -5
57 25 177 -11 435 -80 572 -17 34 -29 62 -27 62 2 0 21 -26 40 -57z m-2293
-65 c-41 -119 -55 -224 -48 -387 6 -161 41 -311 106 -460 22 -52 39 -96 37
-98 -8 -9 -79 86 -107 142 -16 33 -43 114 -61 180 -28 108 -31 135 -32 275 -1
178 10 235 75 369 27 58 43 81 50 74 7 -7 1 -37 -20 -95z m2466 53 c12 -18 37
-70 54 -114 29 -73 32 -96 37 -213 10 -277 -47 -505 -157 -634 -40 -46 -40
-22 -1 61 16 35 43 118 61 184 58 221 51 511 -17 679 -13 33 -24 64 -24 69 0
17 25 0 47 -32z m-2410 -235 c-4 -28 -3 -33 11 -29 15 4 17 -8 14 -124 -4
-130 7 -230 35 -316 8 -27 13 -51 10 -53 -3 -3 -8 4 -12 17 -5 14 -10 18 -15
10 -7 -13 -40 68 -61 152 -12 49 -8 310 6 355 11 34 18 26 12 -12z m2180 -88
c-3 -7 -5 -2 -5 12 0 14 2 19 5 13 2 -7 2 -19 0 -25z m-2030 -10 c-3 -8 -6 -5
-6 6 -1 11 2 17 5 13 3 -3 4 -12 1 -19z m0 -40 c-3 -8 -6 -5 -6 6 -1 11 2 17
5 13 3 -3 4 -12 1 -19z m2087 -210 c-4 -24 -15 -65 -26 -93 -18 -51 -18 -37 1
45 6 25 13 55 16 68 9 39 16 24 9 -20z m-2137 -10 c-3 -7 -5 -2 -5 12 0 14 2
19 5 13 2 -7 2 -19 0 -25z m20 -70 c-3 -8 -6 -5 -6 6 -1 11 2 17 5 13 3 -3 4
-12 1 -19z"/>
<path d="M4386 8675 c10 -8 24 -14 29 -14 6 0 1 6 -9 14 -11 8 -24 15 -30 15
-5 0 -1 -7 10 -15z"/>
<path d="M5905 8765 c-72 -17 -125 -48 -163 -95 -42 -51 -34 -51 21 -1 28 26
68 48 120 66 43 15 80 32 83 36 6 11 4 10 -61 -6z"/>
<path d="M6146 7914 c-11 -8 -16 -14 -10 -14 13 0 39 18 34 24 -3 2 -14 -2
-24 -10z"/>
<path d="M3245 7320 c-24 -4 19 -7 110 -7 107 0 136 2 100 7 -61 10 -156 10
-210 0z"/>
<path d="M6788 7323 c12 -2 30 -2 40 0 9 3 -1 5 -23 4 -22 0 -30 -2 -17 -4z"/>
<path d="M6903 7313 c9 -2 23 -2 30 0 6 3 -1 5 -18 5 -16 0 -22 -2 -12 -5z"/>
<path d="M6385 7230 c4 -6 -10 -8 -37 -5 -36 3 -39 2 -21 -7 15 -7 45 -7 107
2 47 7 86 14 86 16 0 2 -32 4 -71 4 -44 0 -68 -4 -64 -10z"/>
<path d="M3728 7223 c6 -2 18 -2 25 0 6 3 1 5 -13 5 -14 0 -19 -2 -12 -5z"/>
<path d="M6285 7210 c3 -5 14 -10 23 -10 15 0 15 2 2 10 -20 13 -33 13 -25 0z"/>
<path d="M5466 7099 c-32 -33 -66 -73 -75 -89 -9 -16 -31 -51 -50 -77 -53 -76
2 -20 72 72 33 44 76 97 96 118 19 20 31 37 26 37 -6 -1 -37 -28 -69 -61z"/>
<path d="M4730 7050 c0 -4 20 -34 45 -66 66 -87 142 -184 176 -226 17 -21 25
-38 19 -38 -30 0 -95 47 -160 117 -81 88 -82 81 -3 -24 73 -99 111 -125 218
-152 74 -19 153 -13 207 15 28 15 162 194 152 203 -4 4 -36 -26 -73 -66 -71
-78 -102 -95 -162 -91 -45 2 -51 15 -11 24 15 3 34 8 42 10 19 5 128 114 115
114 -6 0 -36 -23 -69 -50 -134 -115 -210 -103 -332 52 -66 84 -164 190 -164
178z"/>
<path d="M2895 7000 c-3 -5 -2 -10 4 -10 5 0 13 5 16 10 3 6 2 10 -4 10 -5 0
-13 -4 -16 -10z"/>
<path d="M2737 6649 c-56 -50 -92 -96 -65 -82 14 6 134 133 127 133 -3 0 -31
-23 -62 -51z"/>
<path d="M7409 6636 c14 -14 27 -26 29 -26 10 0 -26 44 -39 48 -8 3 -3 -7 10
-22z"/>
<path d="M7480 6576 c0 -8 7 -16 15 -20 13 -4 14 -2 5 14 -13 23 -20 26 -20 6z"/>
<path d="M7555 6490 c10 -11 20 -20 22 -20 2 0 -2 9 -9 20 -7 11 -17 20 -22
20 -5 0 -1 -9 9 -20z"/>
<path d="M8208 6803 c6 -2 18 -2 25 0 6 3 1 5 -13 5 -14 0 -19 -2 -12 -5z"/>
<path d="M8250 6800 c0 -5 8 -11 18 -14 10 -3 45 -31 77 -61 33 -30 61 -55 63
-55 8 0 -30 58 -50 76 -44 39 -108 71 -108 54z"/>
<path d="M8405 6650 c3 -5 8 -10 11 -10 2 0 4 5 4 10 0 6 -5 10 -11 10 -5 0
-7 -4 -4 -10z"/>
<path d="M1936 6805 c3 -5 28 -10 58 -10 33 0 52 4 49 10 -2 6 -28 11 -57 10
-31 0 -52 -4 -50 -10z"/>
<path d="M4937 6039 c-22 -11 -37 -23 -34 -25 3 -3 27 6 53 20 27 14 42 26 34
26 -8 -1 -32 -10 -53 -21z"/>
<path d="M3497 5654 c-3 -4 -19 -8 -36 -10 -31 -4 -151 -55 -185 -80 -20 -14
-19 -15 14 -11 22 3 34 9 32 17 -2 7 3 10 11 7 7 -2 21 1 32 9 10 8 27 14 37
14 22 0 108 41 108 52 0 10 -4 10 -13 2z"/>
<path d="M4915 5060 c7 -24 65 -120 72 -120 2 0 -3 14 -12 30 -19 37 -10 39
22 4 20 -22 26 -24 40 -12 9 7 19 12 22 11 3 -1 8 1 11 4 3 3 -7 3 -22 1 -16
-3 -28 -1 -28 3 0 5 -6 9 -14 9 -8 0 -33 21 -56 48 -34 37 -41 42 -35 22z"/>
<path d="M5845 4990 c-3 -5 -2 -10 4 -10 5 0 13 5 16 10 3 6 2 10 -4 10 -5 0
-13 -4 -16 -10z"/>
<path d="M5878 4973 c6 -2 18 -2 25 0 6 3 1 5 -13 5 -14 0 -19 -2 -12 -5z"/>
<path d="M5422 4749 c-47 -10 -53 -21 -8 -15 36 5 54 12 45 19 -2 2 -19 0 -37
-4z"/>
<path d="M5325 4710 c-3 -5 -2 -10 4 -10 5 0 13 5 16 10 3 6 2 10 -4 10 -5 0
-13 -4 -16 -10z"/>
<path d="M5210 4530 c-6 -11 -8 -20 -6 -20 3 0 10 9 16 20 6 11 8 20 6 20 -3
0 -10 -9 -16 -20z"/>
<path d="M5380 4490 c0 -11 2 -20 4 -20 2 0 6 9 9 20 3 11 1 20 -4 20 -5 0 -9
-9 -9 -20z"/>
<path d="M5272 4355 c0 -16 2 -22 5 -12 2 9 2 23 0 30 -3 6 -5 -1 -5 -18z"/>
<path d="M5640 4326 c0 -15 32 -76 40 -76 4 0 11 -15 15 -32 l8 -33 4 28 c3
18 9 25 16 20 7 -4 -6 13 -27 38 -57 64 -56 64 -56 55z"/>
<path d="M4367 4293 c-4 -3 -7 -11 -7 -17 0 -6 5 -5 12 2 6 6 9 14 7 17 -3 3
-9 2 -12 -2z"/>
<path d="M4505 4130 c-3 -5 -1 -10 4 -10 6 0 11 5 11 10 0 6 -2 10 -4 10 -3 0
-8 -4 -11 -10z"/>
<path d="M3978 4043 c-16 -19 -38 -57 -38 -67 0 -3 5 -6 10 -6 6 0 10 5 10 11
0 6 9 24 21 41 23 32 21 48 -3 21z"/>
<path d="M4080 3900 c-11 -22 -18 -40 -15 -40 2 0 14 18 25 40 11 22 18 40 15
40 -2 0 -14 -18 -25 -40z"/>
<path d="M2700 5109 c0 -5 5 -7 10 -4 6 3 10 8 10 11 0 2 -4 4 -10 4 -5 0 -10
-5 -10 -11z"/>
<path d="M2509 4913 c-13 -16 -12 -17 4 -4 9 7 17 15 17 17 0 8 -8 3 -21 -13z"/>
<path d="M2740 4739 c0 -5 5 -7 10 -4 6 3 10 8 10 11 0 2 -4 4 -10 4 -5 0 -10
-5 -10 -11z"/>
<path d="M7420 4745 c13 -14 26 -25 28 -25 3 0 -5 11 -18 25 -13 14 -26 25
-28 25 -3 0 5 -11 18 -25z"/>
<path d="M7544 4442 c4 -3 14 -7 22 -8 9 -1 13 0 10 4 -4 3 -14 7 -22 8 -9 1
-13 0 -10 -4z"/>
<path d="M5400 3736 c0 -6 22 -16 67 -30 18 -6 22 -4 17 7 -3 8 -15 15 -27 14
-12 0 -30 3 -39 7 -10 5 -18 5 -18 2z"/>
<path d="M4628 3708 c-16 -5 -28 -14 -28 -18 0 -11 58 8 66 21 6 11 -3 10 -38
-3z"/>
<path d="M4605 3600 c-3 -5 1 -10 9 -10 9 0 16 5 16 10 0 6 -4 10 -9 10 -6 0
-13 -4 -16 -10z"/>
<path d="M4518 3589 c-14 -6 -29 -17 -32 -25 -7 -17 -6 -17 30 -1 16 8 40 19
54 25 l25 11 -25 0 c-14 -1 -37 -5 -52 -10z"/>
<path d="M6221 2764 c0 -11 3 -14 6 -6 3 7 2 16 -1 19 -3 4 -6 -2 -5 -13z"/>
<path d="M6259 2427 c-2 -25 -4 -31 -12 -44 -4 -6 -3 -14 2 -18 11 -6 27 62
17 72 -3 4 -7 -1 -7 -10z"/>
<path d="M3866 2975 c-3 -8 -1 -15 4 -15 6 0 10 7 10 15 0 8 -2 15 -4 15 -2 0
-6 -7 -10 -15z"/>
<path d="M3911 2654 c0 -11 3 -14 6 -6 3 7 2 16 -1 19 -3 4 -6 -2 -5 -13z"/>
</g>
</svg>
